<?xml version="1.0" encoding="UTF-8"?>
<svg id="Layer_2" data-name="Layer 2" xmlns="http://www.w3.org/2000/svg" viewBox="0 0 1077.36 244.04">
  <defs>
    <style>
      .cls-1 {
        fill: #ffffff;
      }

      .cls-2 {
        fill: #422dcd;
      }

      .cls-3 {
        fill: #fdfdfd;
      }
    </style>
  </defs>
  <g id="Layer_1-2" data-name="Layer 1">
    <g>
      <path class="cls-2" d="M136.15,108.11l-20.42,86.26-11.85,49.67-21.77-.27c-8.77-.85-14.27-8.2-13.22-16.52.8-6.33-3.76-11.08-9.83-11.15l-25.49-.27c-6-.06-9.43-6.35-8.68-11.8.69-4.97,5.01-9.25,10.59-9.27l37.48-.12c6.43-.02,10.9-5.53,10.76-11.51-.12-5.27-4.23-11.04-10.37-11.07l-63.53-.25c-6.39-.02-10.38-5.81-9.78-11.46s4.99-9.54,11.19-9.55l68.57-.06c6.72,0,11.39-5.9,11.08-11.94s-5.24-10.74-11.71-10.76l-42.3-.16c-5.68-.02-9.34-5.62-9.12-10.65.2-4.64,3.67-9.95,9.13-9.98l45.77-.19c5.42.12,9.56-3.05,11.81-7.85l19.25.6,7.96,7.8,14.46.51Z"/>
      <g>
        <path class="cls-2" d="M259.02,142.08l12,.56-.3,27.68c-2.08,33.3-32.62,61.61-63.87,70.61-7.26,2.01-13.97,3.05-21.49,3.05l-45.55.05,11.59-49.53,17.27-72.28,41.67.05c8.12.01,15.01,4.92,17.45,12.56,3.41,13.91-6.44,28.2-20.86,29.61l-22.58.34-7.07,29.32,28.26-.18c28.32-1.63,50.57-23.8,53.47-51.86Z"/>
        <path class="cls-1" d="M271.02,142.64l-12-.56c2.79-26.96-17.6-49.91-43.86-49.96l-75.12-.14-3.89,16.13-14.46-.51-7.96-7.8-19.25-.6,5.85-28.7c1.58-7.76,8.64-13.54,16.54-13.62l23.28-.24.12-14.73c2.44-28.46,29.55-47.76,57.24-40.31,18.51,4.98,31.84,21.71,32,40.89l.12,14.15,24.16.3c9.7.75,17.57,8.38,17.53,18.24l-.29,67.45ZM218.09,56.71l.08-14.21c-1.28-15.25-12.5-27.53-27.76-29.95-19.42-3.07-37.29,11.14-38.76,30.77l.07,13.46,66.37-.07Z"/>
      </g>
      <path class="cls-3" d="M218.09,56.71l-66.37.07-.07-13.46c1.47-19.62,19.34-33.84,38.76-30.77,15.26,2.41,26.48,14.7,27.76,29.95l-.08,14.21Z"/>
    </g>
    <g>
      <path class="cls-2" d="M797.3,178.41l-.46-11.21c-14.75,18.38-44.48,16.3-59.93.05-8.81-9.27-12.39-21.78-10.85-34.43,2.44-20.02,18.23-34.62,38.3-36.11,12.56-.94,24.32,3.23,32.39,12.89l.25-10.93,18.28.08.02,79.47-18.01.2ZM796.06,138.38c0-13.97-11.33-25.3-25.3-25.3s-25.3,11.33-25.3,25.3,11.33,25.3,25.3,25.3,25.3-11.33,25.3-25.3Z"/>
      <path class="cls-2" d="M873.67,113.75c-10.98-.44-20.52,6.73-20.58,17.8l-.25,46.62-18.33-.08v-79.35s17.7-.1,17.7-.1l.49,9.6c10.63-14.7,34.41-14.93,47.01-3.82,6.32,5.57,9.94,13.74,9.99,22.34l.28,51.53h-18.41s-.34-48.02-.34-48.02c-.07-9.82-7.78-16.13-17.57-16.53Z"/>
      <g>
        <g>
          <path class="cls-1" d="M666.7,178.1l-19.33.16-.12-46.71c-.03-10.52-8.06-17.47-18.19-17.75-11.19-.31-20.06,7-21,18.46l-.1,45.93-19.07.06v-112.52s19.09-.01,19.09-.01l.18,41.21c12.9-14.13,36.27-13.6,49.49-.61,5.76,6.16,8.37,13.87,8.94,22.43l.1,49.35Z"/>
          <rect class="cls-2" x="688.22" y="65.7" width="18.63" height="112.64"/>
        </g>
        <g>
          <path class="cls-1" d="M312.84,170.2l-.23,34.31-19.74.04.07-73.7c1.39-9.27,3.88-18.39,11.49-24.25,13.23-10.17,31.43-12.99,47.25-8.07,17.34,5.4,28.21,20.65,28.6,38.44.52,24.07-18.07,42.95-42.11,43.04-9.39.31-17.79-2.61-25.33-9.81ZM360.62,137.91c0-13.27-10.76-24.04-24.04-24.04s-24.04,10.76-24.04,24.04,10.76,24.04,24.04,24.04,24.04-10.76,24.04-24.04Z"/>
          <path class="cls-1" d="M462.03,174.4c-14.17,7.61-30.66,7.63-44.83,1.02-13.93-6.5-22.62-20.15-23.39-34.71-.82-15.48,6.2-30.03,19.82-37.94,15.28-8.88,34.52-8.88,49.77-.01,13.08,7.6,20.08,21.35,19.89,35.98-.19,14.46-7.72,28.39-21.26,35.66ZM463.12,137.98c0-13.57-11-24.57-24.57-24.57s-24.57,11-24.57,24.57,11,24.57,24.57,24.57,24.57-11,24.57-24.57Z"/>
          <path class="cls-1" d="M569.07,163.85c-6.8,18.51-36.97,20.05-54.82,13.15-9.23-3.57-15.31-11.26-16.03-20.94l18.41-2.17c1.27,3.52,3.29,7.53,7.52,9.05,11.94,4.28,26.98,1.85,27-6.83,0-3.38-2.28-6.27-5.82-7l-16.03-3.29c-5.83-1.2-11.51-2.19-16.81-4.54-8-3.55-12.56-10.28-12.97-18.96-.49-10.45,5.12-19.48,15.4-23.25,19.58-7.18,50.5-2.83,53.04,20.46l-18.69,2c-.55-3.17-2.11-5.8-5.11-7.25-10.57-5.12-24.91-2.34-25.08,5.76-.16,7.28,9.16,7.81,15.84,9.23l18.86,3.99c12.37,2.62,20.47,16.52,15.29,30.61Z"/>
        </g>
      </g>
      <g>
        <path class="cls-2" d="M955.83,161.81c10.1,4.18,21.46,1.8,27.87-7.26l16.05,6.38c-6.33,11.55-18.26,17.97-31.28,19.01-21.54,1.72-40.15-12.56-43.81-33.87-2.32-13.49,1.22-27.19,10.84-37.11,11.77-12.13,29.62-15.51,45.29-9.24,18.44,7.37,25.63,25.84,24,44.95h-62.13c.91,7.81,5.8,13.88,13.17,17.14ZM986.87,130.87c-2.38-12.65-13.96-19.35-25.51-17.62-9.37,1.33-17.02,7.97-18.66,17.74l44.17-.12Z"/>
        <path class="cls-2" d="M1073.19,149.01l-52.68-.11c-2.28,0-3.09-2.4-2.96-3.86.2-2.25,1.8-3.4,4.35-3.4l51.29-.05c2.58,0,4.05,1.26,4.17,3.43.13,2.41-1.34,3.99-4.16,3.99Z"/>
        <path class="cls-2" d="M1059.52,129.28h-34.75c-1.86,0-2.8-2.4-2.69-3.6.14-1.6,1.33-3.53,3.39-3.53h33.7c1.74,0,2.69,1.75,2.98,2.86.31,1.22-.41,4.26-2.62,4.26Z"/>
        <path class="cls-2" d="M1047.18,168.37l-32.95.05c-2.23,0-3.4-2.21-3.17-3.77.28-1.89,1.6-3.4,3.84-3.41l31.24-.08c2.23,0,3.74.83,4.17,2.7.4,1.74-.35,4.51-3.14,4.52Z"/>
      </g>
    </g>
  </g>
</svg>
