<?xml version="1.0" encoding="UTF-8"?>
<svg id="Layer_2" data-name="Layer 2" xmlns="http://www.w3.org/2000/svg" viewBox="0 0 390.92 351.63">
  <defs>
    <style>
      .cls-1 {
        fill: #0a132d;
      }

      .cls-2 {
        fill: #422dcd;
      }

      .cls-3 {
        fill: #fdfdfd;
      }
    </style>
  </defs>
  <g id="Layer_1-2" data-name="Layer 1">
    <g>
      <path class="cls-2" d="M196.18,155.77l-29.42,124.28-17.07,71.57-31.36-.38c-12.64-1.23-20.56-11.81-19.04-23.8,1.15-9.12-5.42-15.97-14.16-16.06l-36.73-.39c-8.64-.09-13.59-9.14-12.5-17,.99-7.15,7.22-13.34,15.26-13.36l54.01-.18c9.27-.03,15.71-7.97,15.51-16.59-.18-7.59-6.09-15.91-14.94-15.95l-91.54-.36c-9.21-.04-14.96-8.37-14.09-16.52s7.2-13.75,16.12-13.76l98.8-.09c9.69,0,16.41-8.51,15.97-17.21s-7.56-15.47-16.87-15.5l-60.95-.23c-8.18-.03-13.45-8.1-13.14-15.35.29-6.68,5.29-14.34,13.16-14.37l65.96-.27c7.81.18,13.77-4.39,17.01-11.31l27.73.86,11.47,11.23,20.83.73Z"/>
      <g>
        <path class="cls-2" d="M373.22,204.72l17.29.81-.43,39.88c-3,47.98-47,88.78-92.03,101.74-10.45,2.9-20.12,4.39-30.96,4.4l-65.64.07,16.7-71.37,24.89-104.15,60.05.08c11.7.02,21.62,7.09,25.15,18.09,4.91,20.04-9.28,40.64-30.06,42.67l-32.54.5-10.18,42.25,40.71-.25c40.81-2.36,72.87-34.29,77.04-74.72Z"/>
        <path class="cls-1" d="M390.51,205.53l-17.29-.81c4.01-38.85-25.36-71.92-63.2-71.99l-108.24-.2-5.6,23.24-20.83-.73-11.47-11.23-27.73-.86,8.42-41.35c2.28-11.18,12.44-19.51,23.83-19.63l33.54-.34.18-21.22c3.51-41.01,42.58-68.81,82.48-58.08,26.68,7.17,45.88,31.28,46.1,58.92l.17,20.38,34.82.43c13.98,1.09,25.32,12.08,25.26,26.29l-.42,97.19ZM314.24,81.71l.12-20.48c-1.84-21.97-18.01-39.67-40-43.15-27.99-4.42-53.73,16.06-55.85,44.33l.1,19.39,95.63-.1Z"/>
      </g>
      <path class="cls-3" d="M314.24,81.71l-95.63.1-.1-19.39c2.12-28.28,27.87-48.76,55.85-44.33,21.99,3.48,38.16,21.18,40,43.15l-.12,20.48Z"/>
    </g>
  </g>
</svg>